<svg width="202" height="200" viewBox="0 0 202 200" fill="none" xmlns="http://www.w3.org/2000/svg">
<rect x="1" width="200" height="200" fill="#EDAF3E"/>
<path d="M1 183.648L13.1795 189.937L24.0769 183.648L40.1026 189.937L52.2821 183.648L67.6667 189.937L79.2051 183.648L92.6667 189.937L104.205 183.648L115.744 189.937L123.436 183.648L137.538 189.937L146.513 183.648L158.051 189.937L167.667 183.648L180.487 189.937L188.821 183.648L201 189.937" stroke="white" stroke-width="2"/>
<path d="M1 166.038L13.1795 172.327L24.0769 166.038L40.1026 172.327L52.2821 166.038L67.6667 172.327L79.2051 166.038L92.6667 172.327L104.205 166.038L115.744 172.327L123.436 166.038L137.538 172.327L146.513 166.038L158.051 172.327L167.667 166.038L180.487 172.327L188.821 166.038L201 172.327" stroke="white" stroke-width="2"/>
<path d="M1 148.428L13.1795 154.717L24.0769 148.428L40.1026 154.717L52.2821 148.428L67.6667 154.717L79.2051 148.428L92.6667 154.717L104.205 148.428L115.744 154.717L123.436 148.428L137.538 154.717L146.513 148.428L158.051 154.717L167.667 148.428L180.487 154.717L188.821 148.428L201 154.717" stroke="white" stroke-width="2"/>
<path d="M1 130.818L13.1795 137.107L24.0769 130.818L40.1026 137.107L52.2821 130.818L67.6667 137.107L79.2051 130.818L92.6667 137.107L104.205 130.818L115.744 137.107L123.436 130.818L137.538 137.107L146.513 130.818L158.051 137.107L167.667 130.818L180.487 137.107L188.821 130.818L201 137.107" stroke="white" stroke-width="2"/>
<path d="M1 115.723L13.1795 122.013L24.0769 115.723L40.1026 122.013L52.2821 115.723L67.6667 122.013L79.2051 115.723L92.6667 122.013L104.205 115.723L115.744 122.013L123.436 115.723L137.538 122.013L146.513 115.723L158.051 122.013L167.667 115.723L180.487 122.013L188.821 115.723L201 122.013" stroke="white" stroke-width="2"/>
<path d="M1 98.1133L13.1795 104.403L24.0769 98.1133L40.1026 104.403L52.2821 98.1133L67.6667 104.403L79.2051 98.1133L92.6667 104.403L104.205 98.1133L115.744 104.403L123.436 98.1133L137.538 104.403L146.513 98.1133L158.051 104.403L167.667 98.1133L180.487 104.403L188.821 98.1133L201 104.403" stroke="white" stroke-width="2"/>
<path d="M1 80.5032L13.1795 86.7925L24.0769 80.5032L40.1026 86.7925L52.2821 80.5032L67.6667 86.7925L79.2051 80.5032L92.6667 86.7925L104.205 80.5032L115.744 86.7925L123.436 80.5032L137.538 86.7925L146.513 80.5032L158.051 86.7925L167.667 80.5032L180.487 86.7925L188.821 80.5032L201 86.7925" stroke="white" stroke-width="2"/>
<path d="M1 62.8931L13.1795 69.1824L24.0769 62.8931L40.1026 69.1824L52.2821 62.8931L67.6667 69.1824L79.2051 62.8931L92.6667 69.1824L104.205 62.8931L115.744 69.1824L123.436 62.8931L137.538 69.1824L146.513 62.8931L158.051 69.1824L167.667 62.8931L180.487 69.1824L188.821 62.8931L201 69.1824" stroke="white" stroke-width="2"/>
<path d="M1 45.283L13.1795 51.5723L24.0769 45.283L40.1026 51.5723L52.2821 45.283L67.6667 51.5723L79.2051 45.283L92.6667 51.5723L104.205 45.283L115.744 51.5723L123.436 45.283L137.538 51.5723L146.513 45.283L158.051 51.5723L167.667 45.283L180.487 51.5723L188.821 45.283L201 51.5723" stroke="white" stroke-width="2"/>
<path d="M1 27.6729L13.1795 33.9622L24.0769 27.6729L40.1026 33.9622L52.2821 27.6729L67.6667 33.9622L79.2051 27.6729L92.6667 33.9622L104.205 27.6729L115.744 33.9622L123.436 27.6729L137.538 33.9622L146.513 27.6729L158.051 33.9622L167.667 27.6729L180.487 33.9622L188.821 27.6729L201 33.9622" stroke="white" stroke-width="2"/>
<path d="M1 10.0629L13.1795 16.3522L24.0769 10.0629L40.1026 16.3522L52.2821 10.0629L67.6667 16.3522L79.2051 10.0629L92.6667 16.3522L104.205 10.0629L115.744 16.3522L123.436 10.0629L137.538 16.3522L146.513 10.0629L158.051 16.3522L167.667 10.0629L180.487 16.3522L188.821 10.0629L201 16.3522" stroke="white" stroke-width="2"/>
<ellipse cx="101.629" cy="98.1133" rx="62.8931" ry="62.8931" fill="#54294E"/>
<path d="M124.922 129.233L119.75 130.852L115.281 132.25H91.8109L87.25 117.678L72.25 69.75L87.25 65.0547L103.266 60.0422L119.75 112.709L124.922 129.233Z" fill="#379A6B"/>
<path d="M113.958 123.496L115.078 127.075L100.762 131.555L99.6423 127.976L96.0635 129.096L79.6353 76.6071L83.214 75.4871L82.094 71.9082L96.4092 67.4279L97.5293 71.0066L101.108 69.8865L117.536 122.376L113.958 123.496Z" fill="#44C086"/>
<path d="M87.25 59.75H119.75V132.25H87.25V59.75Z" fill="#3BA673"/>
<path d="M111 123.5V127.25H96V123.5H92.25V68.5H96V64.75H111V68.5H114.75V123.5H111Z" fill="#44C086"/>
<path d="M103.5 102.25C106.952 102.25 109.75 99.4518 109.75 96C109.75 92.5482 106.952 89.75 103.5 89.75C100.048 89.75 97.25 92.5482 97.25 96C97.25 99.4518 100.048 102.25 103.5 102.25Z" fill="#3BA673"/>
<path d="M129.75 102.25V132.25H121C117.685 132.25 114.505 130.933 112.161 128.589C109.817 126.245 108.5 123.065 108.5 119.75H108.525L100.416 107.749C99.6732 106.65 99.3977 105.302 99.6497 104C99.9017 102.698 100.661 101.549 101.759 100.807C102.858 100.065 104.207 99.7891 105.509 100.041C106.811 100.293 107.959 101.052 108.702 102.151L116 112.25H119.75V82.25L129.162 99.897C129.548 100.621 129.75 101.429 129.75 102.25V102.25Z" fill="#F2CBA7"/>
</svg>
