<svg width="202" height="200" viewBox="0 0 202 200" fill="none" xmlns="http://www.w3.org/2000/svg">
<rect x="1" width="200" height="200" fill="#EB8984"/>
<path d="M1 183.648L13.1795 189.937L24.0769 183.648L40.1026 189.937L52.2821 183.648L67.6667 189.937L79.2051 183.648L92.6667 189.937L104.205 183.648L115.744 189.937L123.436 183.648L137.538 189.937L146.513 183.648L158.051 189.937L167.667 183.648L180.487 189.937L188.821 183.648L201 189.937" stroke="white" stroke-width="2"/>
<path d="M1 166.038L13.1795 172.327L24.0769 166.038L40.1026 172.327L52.2821 166.038L67.6667 172.327L79.2051 166.038L92.6667 172.327L104.205 166.038L115.744 172.327L123.436 166.038L137.538 172.327L146.513 166.038L158.051 172.327L167.667 166.038L180.487 172.327L188.821 166.038L201 172.327" stroke="white" stroke-width="2"/>
<path d="M1 148.428L13.1795 154.717L24.0769 148.428L40.1026 154.717L52.2821 148.428L67.6667 154.717L79.2051 148.428L92.6667 154.717L104.205 148.428L115.744 154.717L123.436 148.428L137.538 154.717L146.513 148.428L158.051 154.717L167.667 148.428L180.487 154.717L188.821 148.428L201 154.717" stroke="white" stroke-width="2"/>
<path d="M1 130.818L13.1795 137.107L24.0769 130.818L40.1026 137.107L52.2821 130.818L67.6667 137.107L79.2051 130.818L92.6667 137.107L104.205 130.818L115.744 137.107L123.436 130.818L137.538 137.107L146.513 130.818L158.051 137.107L167.667 130.818L180.487 137.107L188.821 130.818L201 137.107" stroke="white" stroke-width="2"/>
<path d="M1 115.723L13.1795 122.013L24.0769 115.723L40.1026 122.013L52.2821 115.723L67.6667 122.013L79.2051 115.723L92.6667 122.013L104.205 115.723L115.744 122.013L123.436 115.723L137.538 122.013L146.513 115.723L158.051 122.013L167.667 115.723L180.487 122.013L188.821 115.723L201 122.013" stroke="white" stroke-width="2"/>
<path d="M1 98.1133L13.1795 104.403L24.0769 98.1133L40.1026 104.403L52.2821 98.1133L67.6667 104.403L79.2051 98.1133L92.6667 104.403L104.205 98.1133L115.744 104.403L123.436 98.1133L137.538 104.403L146.513 98.1133L158.051 104.403L167.667 98.1133L180.487 104.403L188.821 98.1133L201 104.403" stroke="white" stroke-width="2"/>
<path d="M1 80.5032L13.1795 86.7925L24.0769 80.5032L40.1026 86.7925L52.2821 80.5032L67.6667 86.7925L79.2051 80.5032L92.6667 86.7925L104.205 80.5032L115.744 86.7925L123.436 80.5032L137.538 86.7925L146.513 80.5032L158.051 86.7925L167.667 80.5032L180.487 86.7925L188.821 80.5032L201 86.7925" stroke="white" stroke-width="2"/>
<path d="M1 62.8931L13.1795 69.1824L24.0769 62.8931L40.1026 69.1824L52.2821 62.8931L67.6667 69.1824L79.2051 62.8931L92.6667 69.1824L104.205 62.8931L115.744 69.1824L123.436 62.8931L137.538 69.1824L146.513 62.8931L158.051 69.1824L167.667 62.8931L180.487 69.1824L188.821 62.8931L201 69.1824" stroke="white" stroke-width="2"/>
<path d="M1 45.283L13.1795 51.5723L24.0769 45.283L40.1026 51.5723L52.2821 45.283L67.6667 51.5723L79.2051 45.283L92.6667 51.5723L104.205 45.283L115.744 51.5723L123.436 45.283L137.538 51.5723L146.513 45.283L158.051 51.5723L167.667 45.283L180.487 51.5723L188.821 45.283L201 51.5723" stroke="white" stroke-width="2"/>
<path d="M1 27.673L13.1795 33.9623L24.0769 27.673L40.1026 33.9623L52.2821 27.673L67.6667 33.9623L79.2051 27.673L92.6667 33.9623L104.205 27.673L115.744 33.9623L123.436 27.673L137.538 33.9623L146.513 27.673L158.051 33.9623L167.667 27.673L180.487 33.9623L188.821 27.673L201 33.9623" stroke="white" stroke-width="2"/>
<path d="M1 10.0627L13.1795 16.3521L24.0769 10.0627L40.1026 16.3521L52.2821 10.0627L67.6667 16.3521L79.2051 10.0627L92.6667 16.3521L104.205 10.0627L115.744 16.3521L123.436 10.0627L137.538 16.3521L146.513 10.0627L158.051 16.3521L167.667 10.0627L180.487 16.3521L188.821 10.0627L201 16.3521" stroke="white" stroke-width="2"/>
<circle cx="101.629" cy="98.1132" r="62.8931" fill="#54294E"/>
<path d="M122.25 66.75H79.75C78.3693 66.75 77.25 67.8693 77.25 69.25V96.75C77.25 98.1307 78.3693 99.25 79.75 99.25H122.25C123.631 99.25 124.75 98.1307 124.75 96.75V69.25C124.75 67.8693 123.631 66.75 122.25 66.75Z" fill="#548AFF"/>
<path d="M83.5 71.75H93.5V81.75H83.5V71.75Z" fill="#EDAF3E"/>
<path d="M83.5 75.5H89.75V78H83.5V75.5Z" fill="#FFA100"/>
<path d="M82.25 86.75H86V89.25H82.25V86.75Z" fill="#4976F2"/>
<path d="M88.5 86.75H99.75V89.25H88.5V86.75Z" fill="#4976F2"/>
<path d="M82.25 93H88.5V95.5H82.25V93Z" fill="#4976F2"/>
<path d="M112.25 71.75H118.5V74.25H112.25V71.75Z" fill="#4976F2"/>
<path d="M103.5 106.75L108.917 98.083C109.145 97.7182 109.501 97.4516 109.915 97.3351C110.329 97.2186 110.771 97.2606 111.156 97.453C111.476 97.6129 111.738 97.8681 111.907 98.1835C112.076 98.4988 112.143 98.8587 112.098 99.2136L111 108L121 103L125.908 96.1284C126.268 95.6247 126.81 95.2807 127.418 95.1691C128.027 95.0575 128.656 95.1871 129.171 95.5304C129.669 95.8626 130.024 96.3703 130.165 96.9523C130.306 97.5344 130.223 98.1483 129.932 98.6718L124.75 108L117.25 119.25H103.5V106.75Z" fill="#F2CBA7"/>
<path d="M103.5 119.25V139.25H118.5L117.25 119.25H103.5Z" fill="#EDAF3E"/>
<path d="M98.5004 106.75L93.0835 98.083C92.8555 97.7182 92.4998 97.4516 92.0857 97.3351C91.6717 97.2186 91.2291 97.2606 90.8444 97.453C90.5245 97.6129 90.262 97.8681 90.0933 98.1835C89.9245 98.4988 89.8577 98.8587 89.9021 99.2136L91.0004 108L81.0004 103L76.0921 96.1284C75.7323 95.6247 75.1907 95.2807 74.5819 95.1691C73.9731 95.0575 73.3447 95.1871 72.8297 95.5304C72.3313 95.8626 71.9763 96.3703 71.8352 96.9523C71.6941 97.5344 71.7772 98.1483 72.0681 98.6718L77.2504 108L84.7504 119.25H98.5004V106.75Z" fill="#F2CBA7"/>
<path d="M98.5 119.25V139.25H83.5L84.75 119.25H98.5Z" fill="#EDAF3E"/>
<path d="M114.75 94.25C116.821 94.25 118.5 92.5711 118.5 90.5C118.5 88.4289 116.821 86.75 114.75 86.75C112.679 86.75 111 88.4289 111 90.5C111 92.5711 112.679 94.25 114.75 94.25Z" fill="#EF5E3B"/>
<path d="M109.75 94.25C111.821 94.25 113.5 92.5711 113.5 90.5C113.5 88.4289 111.821 86.75 109.75 86.75C107.679 86.75 106 88.4289 106 90.5C106 92.5711 107.679 94.25 109.75 94.25Z" fill="#02C26A"/>
</svg>
