<svg width="200" height="200" viewBox="0 0 200 200" fill="none" xmlns="http://www.w3.org/2000/svg">
<rect width="200" height="200" fill="#79E5CA"/>
<path d="M200 0H0L200 200V0Z" fill="#EDAF3E"/>
<circle cx="99.5" cy="99.5" r="67.5" fill="#54294E"/>
<g clip-path="url(#clip0)">
<path d="M98.2412 105.517H103.758V120.69L101 123.448L98.2412 120.69V105.517Z" fill="white"/>
<path d="M101 98.6206C95.6675 98.6206 91.3447 94.2979 91.3447 88.9655C91.3447 83.6331 95.6675 79.3103 101 79.3103V82.0689C97.1911 82.0689 94.1033 85.1567 94.1033 88.9655C94.1033 92.7743 97.1911 95.862 101 95.862V98.6206Z" fill="white"/>
<path d="M105.138 90.3448H96.862C93.8149 90.3448 91.3447 92.815 91.3447 95.8621V104.138C91.3447 105.662 92.5797 106.897 94.1033 106.897H107.896C109.42 106.897 110.655 105.662 110.655 104.138V95.8621C110.655 92.815 108.185 90.3448 105.138 90.3448ZM102.379 101.379H99.6206C98.097 101.379 96.862 100.144 96.862 98.6207C96.862 97.0971 98.097 95.8621 99.6206 95.8621H102.379C103.903 95.8621 105.138 97.0971 105.138 98.6207C105.138 100.144 103.903 101.379 102.379 101.379Z" fill="#FB938E"/>
<path d="M120.31 131.724H101L91.1048 121.829C90.3717 121.096 89.3762 120.686 88.3393 120.69H88.2772C86.1626 120.69 84.4482 122.404 84.4482 124.519C84.4482 124.519 84.4482 124.52 84.4482 124.521V124.594C84.4474 125.629 84.8582 126.622 85.5903 127.353L96.6248 138.388C97.6607 139.421 99.0648 140.001 100.528 140H141V128.965H135.247C132.749 128.966 130.352 127.974 128.586 126.207C126.82 124.44 124.424 123.448 121.925 123.448H110.655C108.37 123.448 106.517 125.301 106.517 127.586C106.517 129.871 108.37 131.724 110.655 131.724H120.31Z" fill="#F2CBA7"/>
<path d="M101 98.6206V95.862C104.809 95.862 107.897 92.7743 107.897 88.9655C107.897 85.1567 104.809 82.0689 101 82.0689V79.3103C106.332 79.3103 110.655 83.6331 110.655 88.9655C110.655 94.2979 106.332 98.6206 101 98.6206Z" fill="white"/>
<path d="M87.2069 73.1034C87.2069 75.7697 89.3683 77.931 92.0345 77.931H98.9476C100.846 77.9341 102.382 79.4755 102.379 81.3738C102.379 81.3757 102.379 81.3774 102.379 81.3793C102.379 83.2838 100.836 84.8276 98.931 84.8276H88.48C84.1341 84.8262 79.9667 83.0991 76.8938 80.0262C73.7272 76.8524 69.4126 75.0931 64.9297 75.1476C62.8028 75.1724 61 75.1724 61 75.1724V60H99.1876C102.114 59.9998 104.921 61.1624 106.99 63.2317L111.561 67.8028C113.631 69.8722 114.793 72.679 114.793 75.6055V81.3793C114.793 83.2838 113.249 84.8276 111.345 84.8276C109.44 84.8276 107.897 83.2838 107.897 81.3793V77.4579C107.897 75.9943 107.315 74.5907 106.28 73.5559L102.617 69.8924C101.582 68.8572 100.178 68.2759 98.7145 68.2759H92.0345C89.3683 68.2759 87.2069 70.4372 87.2069 73.1034Z" fill="#F2CBA7"/>
<path d="M106.517 127.586H118.931C121.216 127.586 123.069 129.439 123.069 131.724H110.655C108.37 131.724 106.517 129.872 106.517 127.586Z" fill="#E1B494"/>
</g>
<defs>
<clipPath id="clip0">
<rect width="80" height="80" fill="white" transform="translate(61 60)"/>
</clipPath>
</defs>
</svg>
