<svg width="1096" height="670" viewBox="0 0 1096 670" fill="none" xmlns="http://www.w3.org/2000/svg">
<path d="M506.359 340.073C590.699 340.073 659.07 263.945 659.07 170.036C659.07 76.1279 590.699 0 506.359 0C422.019 0 353.647 76.1279 353.647 170.036C353.647 263.945 422.019 340.073 506.359 340.073Z" fill="#EB8984"/>
<path d="M484.203 350.644H176.274C175.889 350.65 175.503 350.616 175.124 350.543L320.76 69.6613C321.648 67.912 322.938 66.4568 324.498 65.4442C326.057 64.4317 327.83 63.8982 329.635 63.8982C331.44 63.8982 333.213 64.4317 334.772 65.4442C336.331 66.4568 337.621 67.912 338.51 69.6613L436.25 258.155L440.933 267.174L484.203 350.644Z" fill="#EDAF3E"/>
<path opacity="0.2" d="M484.203 350.644H379.068L430.679 267.173L434.393 261.161L436.25 258.155L440.933 267.173L484.203 350.644Z" fill="black"/>
<path d="M655.655 350.644H389.322L440.932 267.174L444.646 261.161L511.899 152.383C516.308 145.254 526.915 144.81 532.099 151.038C532.447 151.463 532.77 151.912 533.067 152.383L655.655 350.644Z" fill="#EDAF3E"/>
<path d="M733.835 304.436C744.282 304.436 752.75 295.007 752.75 283.375C752.75 271.744 744.282 262.315 733.835 262.315C723.389 262.315 714.921 271.744 714.921 283.375C714.921 295.007 723.389 304.436 733.835 304.436Z" fill="#79E5CA"/>
<path d="M735.659 346.811H731.785L733.551 280.204L735.659 346.811Z" fill="#54294E"/>
<path d="M733.891 292.827L738.051 286.42L733.834 294.413L733.379 293.525L733.891 292.827Z" fill="#54294E"/>
<path d="M733.437 299.297L729.277 292.891L733.493 300.883L733.948 299.995L733.437 299.297Z" fill="#54294E"/>
<path d="M907.341 304.436C917.787 304.436 926.255 295.007 926.255 283.375C926.255 271.744 917.787 262.315 907.341 262.315C896.895 262.315 888.426 271.744 888.426 283.375C888.426 295.007 896.895 304.436 907.341 304.436Z" fill="#79E5CA"/>
<path d="M909.164 346.811H905.29L907.057 280.204L909.164 346.811Z" fill="#54294E"/>
<path d="M907.398 292.827L911.558 286.42L907.341 294.413L906.885 293.525L907.398 292.827Z" fill="#54294E"/>
<path d="M906.943 299.297L902.783 292.891L907 300.883L907.455 299.995L906.943 299.297Z" fill="#54294E"/>
<path d="M788.628 284.227C804.056 284.227 816.563 270.301 816.563 253.122C816.563 235.944 804.056 222.018 788.628 222.018C773.199 222.018 760.692 235.944 760.692 253.122C760.692 270.301 773.199 284.227 788.628 284.227Z" fill="#79E5CA"/>
<path d="M791.32 346.811H785.599L788.206 248.438L791.32 346.811Z" fill="#54294E"/>
<path d="M788.712 267.081L794.854 257.62L788.628 269.424L787.954 268.112L788.712 267.081Z" fill="#54294E"/>
<path d="M788.038 276.637L781.896 267.176L788.122 278.979L788.796 277.669L788.038 276.637Z" fill="#54294E"/>
<path d="M856.752 284.227C872.18 284.227 884.687 270.301 884.687 253.122C884.687 235.944 872.18 222.018 856.752 222.018C841.324 222.018 828.817 235.944 828.817 253.122C828.817 270.301 841.324 284.227 856.752 284.227Z" fill="#79E5CA"/>
<path d="M859.445 346.811H853.724L856.331 248.438L859.445 346.811Z" fill="#54294E"/>
<path d="M856.836 267.081L862.979 257.62L856.752 269.424L856.08 268.112L856.836 267.081Z" fill="#54294E"/>
<path d="M856.164 276.637L850.021 267.176L856.248 278.979L856.92 277.669L856.164 276.637Z" fill="#54294E"/>
<path d="M680.053 284.227C695.482 284.227 707.989 270.301 707.989 253.122C707.989 235.944 695.482 222.018 680.053 222.018C664.625 222.018 652.118 235.944 652.118 253.122C652.118 270.301 664.625 284.227 680.053 284.227Z" fill="#79E5CA"/>
<path d="M682.745 346.811H677.024L679.633 248.438L682.745 346.811Z" fill="#54294E"/>
<path d="M680.137 267.081L686.279 257.62L680.053 269.424L679.38 268.112L680.137 267.081Z" fill="#54294E"/>
<path d="M679.464 276.637L673.321 267.176L679.548 278.979L680.221 277.669L679.464 276.637Z" fill="#54294E"/>
<path d="M1010.55 670H98.9022C87.4162 670 76.0426 667.481 65.4309 662.587C54.8192 657.693 45.1772 650.519 37.0553 641.476C28.9335 632.433 22.4909 621.697 18.0954 609.881C13.6998 598.065 11.4375 585.402 11.4375 572.612C11.4375 559.823 13.6998 547.159 18.0954 535.344C22.4909 523.528 28.9335 512.792 37.0553 503.749C45.1772 494.706 54.8192 487.532 65.4309 482.638C76.0426 477.744 87.4162 475.225 98.9022 475.225H1008.54C1017.46 475.225 1026.01 471.279 1032.32 464.254C1038.63 457.23 1042.18 447.702 1042.18 437.768C1042.18 427.834 1038.63 418.307 1032.32 411.282C1026.01 404.258 1017.46 400.312 1008.54 400.312H68.626V340.381H1008.54C1031.73 340.381 1053.98 350.641 1070.38 368.905C1086.78 387.169 1096 411.94 1096 437.768C1096 463.597 1086.78 488.368 1070.38 506.632C1053.98 524.895 1031.73 535.156 1008.54 535.156H98.9022C89.9803 535.156 81.4237 539.102 75.115 546.127C68.8062 553.151 65.262 562.678 65.262 572.613C65.262 582.547 68.8062 592.074 75.115 599.098C81.4237 606.123 89.9803 610.069 98.9022 610.069H1010.55V670Z" fill="#562F4F"/>
<path d="M143.98 368.848H102.266V371.844H143.98V368.848Z" fill="white"/>
<path d="M262.394 368.848H220.68V371.844H262.394V368.848Z" fill="white"/>
<path d="M380.808 368.848H339.094V371.844H380.808V368.848Z" fill="white"/>
<path d="M499.222 368.848H457.508V371.844H499.222V368.848Z" fill="white"/>
<path d="M617.635 368.848H575.921V371.844H617.635V368.848Z" fill="white"/>
<path d="M736.049 368.848H694.335V371.844H736.049V368.848Z" fill="white"/>
<path d="M854.463 368.848H812.75V371.844H854.463V368.848Z" fill="white"/>
<path d="M972.877 368.848H931.163V371.844H972.877V368.848Z" fill="white"/>
<path d="M143.98 503.692H102.266V506.689H143.98V503.692Z" fill="white"/>
<path d="M262.394 503.692H220.68V506.689H262.394V503.692Z" fill="white"/>
<path d="M380.808 503.692H339.094V506.689H380.808V503.692Z" fill="white"/>
<path d="M499.222 503.692H457.508V506.689H499.222V503.692Z" fill="white"/>
<path d="M617.635 503.692H575.921V506.689H617.635V503.692Z" fill="white"/>
<path d="M736.049 503.692H694.335V506.689H736.049V503.692Z" fill="white"/>
<path d="M854.463 503.692H812.75V506.689H854.463V503.692Z" fill="white"/>
<path d="M972.877 503.692H931.163V506.689H972.877V503.692Z" fill="white"/>
<path d="M143.98 638.536H102.266V641.533H143.98V638.536Z" fill="white"/>
<path d="M262.394 638.536H220.68V641.533H262.394V638.536Z" fill="white"/>
<path d="M380.808 638.536H339.094V641.533H380.808V638.536Z" fill="white"/>
<path d="M499.222 638.536H457.508V641.533H499.222V638.536Z" fill="white"/>
<path d="M617.635 638.536H575.921V641.533H617.635V638.536Z" fill="white"/>
<path d="M736.049 638.536H694.335V641.533H736.049V638.536Z" fill="white"/>
<path d="M854.463 638.536H812.75V641.533H854.463V638.536Z" fill="white"/>
<path d="M972.877 638.536H931.163V641.533H972.877V638.536Z" fill="white"/>
<path d="M932.532 628.119L956.585 628.133L956.587 623.882L932.534 623.868L932.532 628.119Z" fill="#54294E"/>
<path d="M758.62 624.827L763.583 626.106L952.195 626.218L953.891 621.818C956.849 614.271 957.864 605.956 956.824 597.804C956.011 591.727 953.976 585.689 949.352 583.066L940.982 520.994L836.633 520.786L796.261 557.043C796.261 557.043 777.216 556.661 766.87 571.003C763.138 576.336 760.934 582.796 760.546 589.543L760.138 597.004L758.62 624.827Z" fill="#79E5CA"/>
<path d="M800.046 649.721C812.909 649.721 823.337 638.111 823.337 623.789C823.337 609.467 812.909 597.857 800.046 597.857C787.184 597.857 776.756 609.467 776.756 623.789C776.756 638.111 787.184 649.721 800.046 649.721Z" fill="#54294E"/>
<path d="M800.047 637.438C806.816 637.438 812.305 631.327 812.305 623.789C812.305 616.251 806.816 610.14 800.047 610.14C793.277 610.14 787.789 616.251 787.789 623.789C787.789 631.327 793.277 637.438 800.047 637.438Z" fill="#EDAF3E"/>
<path d="M914.97 649.79C927.833 649.79 938.26 638.179 938.26 623.857C938.26 609.535 927.833 597.925 914.97 597.925C902.108 597.925 891.68 609.535 891.68 623.857C891.68 638.179 902.108 649.79 914.97 649.79Z" fill="#54294E"/>
<path d="M914.97 637.506C921.74 637.506 927.228 631.395 927.228 623.857C927.228 616.319 921.74 610.209 914.97 610.209C908.2 610.209 902.712 616.319 902.712 623.857C902.712 631.395 908.2 637.506 914.97 637.506Z" fill="#EDAF3E"/>
<path d="M812.301 552.805L868.641 552.832H875.519L887.13 552.841V551.898L887.139 540.528L887.147 527.763H879.421L872.544 527.754L860.361 527.745H853.484L839.42 527.735L812.301 552.805Z" fill="white"/>
<path d="M896.298 552.851L926.074 552.869L926.081 546.364V534.994L926.09 527.79H921.73L914.852 527.781L896.307 527.772L896.298 552.851Z" fill="white"/>
<path d="M883.302 579.626L887.12 579.628L887.124 571.551L883.305 571.549L883.302 579.626Z" fill="#54294E"/>
<path d="M827.565 564.288L827.567 560.037L820.313 560.033L820.311 564.284L827.565 564.288Z" fill="#54294E"/>
<path d="M824.894 561.906L824.474 561.906C823.426 561.905 822.388 561.675 821.42 561.228C820.452 560.78 819.573 560.126 818.832 559.3C818.092 558.475 817.504 557.495 817.104 556.416C816.703 555.338 816.497 554.183 816.498 553.016V553.016C816.499 551.849 816.706 550.694 817.107 549.616C817.509 548.538 818.097 547.559 818.838 546.735C819.58 545.91 820.46 545.256 821.428 544.81C822.396 544.364 823.434 544.135 824.482 544.136L824.902 544.136L824.894 561.906Z" fill="#54294E"/>
<path d="M760.138 597.004C763.025 597.354 765.931 596.557 768.342 594.756C770.754 592.954 772.518 590.263 773.323 587.155C774.127 584.048 773.921 580.724 772.741 577.77C771.56 574.815 769.481 572.419 766.87 571.003C763.138 576.336 760.934 582.796 760.546 589.543L760.138 597.004Z" fill="#54294E"/>
<path d="M872.544 527.754L887.13 551.898L887.139 540.528L879.422 527.762L872.544 527.754Z" fill="#F2F2F2"/>
<path d="M914.852 527.78L926.08 546.363V534.993L921.729 527.79L914.852 527.78Z" fill="#F2F2F2"/>
<path d="M853.484 527.745L868.642 552.832H875.519L860.362 527.745H853.484Z" fill="#F2F2F2"/>
<path d="M61.8981 421.287C96.0835 421.287 123.796 390.431 123.796 352.367C123.796 314.303 96.0835 283.447 61.8981 283.447C27.7127 283.447 0 314.303 0 352.367C0 390.431 27.7127 421.287 61.8981 421.287Z" fill="#79E5CA"/>
<path d="M62.1555 373.116L31.1795 338.626C30.1719 337.501 29.6064 335.978 29.6072 334.389C29.608 332.801 30.175 331.278 31.1837 330.154C32.1925 329.031 33.5604 328.4 34.987 328.399C36.4136 328.398 37.7821 329.028 38.792 330.15L61.6404 355.59L134.551 263.014C135.493 261.822 136.821 261.094 138.244 260.992C139.668 260.889 141.069 261.419 142.142 262.466C143.214 263.513 143.869 264.991 143.963 266.576C144.058 268.16 143.583 269.722 142.645 270.917L62.1555 373.116Z" fill="#562F4F"/>
</svg>
