<svg width="1077" height="744" viewBox="0 0 1077 744" fill="none" xmlns="http://www.w3.org/2000/svg">
<rect width="1077" height="744" fill="white"/>
<path d="M898.24 138.038C928.885 70.6566 1030.18 17.9371 1077 0V744H0C55.3304 726.063 184.533 665.974 258.702 569.113C351.413 448.038 402.487 410.604 520.735 366.736C638.983 322.868 696.719 370.245 776.661 366.736C856.604 363.226 859.935 222.264 898.24 138.038Z" fill="#EDAF3E"/>
<path d="M937.449 632.629H324.551C319.1 632.629 313.873 630.463 310.019 626.609C306.165 622.755 304 617.528 304 612.078C526.176 586.257 744.176 586.257 958 612.078C958 617.528 955.835 622.755 951.981 626.609C948.127 630.463 942.9 632.629 937.449 632.629Z" fill="#79416F"/>
<path d="M958 613.287L304 612.078L379.796 484.542L380.159 483.937V202.862C380.159 199.451 380.83 196.073 382.136 192.921C383.441 189.769 385.355 186.905 387.767 184.492C390.18 182.08 393.044 180.166 396.196 178.861C399.348 177.555 402.726 176.884 406.138 176.884H852.236C855.647 176.884 859.026 177.555 862.178 178.861C865.33 180.166 868.194 182.08 870.606 184.492C873.018 186.905 874.932 189.769 876.237 192.921C877.543 196.073 878.215 199.451 878.214 202.862V485.872L958 613.287Z" fill="#562F4F"/>
<path d="M405.545 195.017C403.302 195.02 401.151 195.912 399.564 197.498C397.978 199.085 397.086 201.236 397.083 203.479V459.76C397.086 462.004 397.978 464.154 399.564 465.741C401.151 467.327 403.302 468.22 405.545 468.222H856.455C858.698 468.22 860.849 467.327 862.435 465.741C864.021 464.154 864.914 462.004 864.917 459.76V203.479C864.914 201.236 864.022 199.085 862.435 197.498C860.849 195.912 858.698 195.02 856.455 195.017H405.545Z" fill="white"/>
<path d="M407.435 502.07C406.742 502.072 406.063 502.271 405.479 502.645C404.896 503.019 404.431 503.552 404.14 504.181L380.785 554.954C380.53 555.506 380.419 556.114 380.461 556.721C380.503 557.327 380.697 557.914 381.026 558.426C381.354 558.938 381.805 559.359 382.339 559.651C382.872 559.943 383.471 560.096 384.079 560.096H875.226C875.845 560.096 876.453 559.938 876.993 559.637C877.532 559.336 877.986 558.902 878.311 558.376C878.636 557.85 878.821 557.25 878.849 556.632C878.877 556.015 878.746 555.4 878.469 554.848L853.083 504.075C852.784 503.471 852.321 502.964 851.748 502.609C851.175 502.255 850.514 502.068 849.84 502.07H407.435Z" fill="#79416F"/>
<path d="M629.187 190.786C632.191 190.786 634.626 188.35 634.626 185.346C634.626 182.341 632.191 179.906 629.187 179.906C626.182 179.906 623.747 182.341 623.747 185.346C623.747 188.35 626.182 190.786 629.187 190.786Z" fill="white"/>
<path d="M580.911 569.767C580.114 569.768 579.339 570.031 578.706 570.516C578.074 571.001 577.618 571.681 577.41 572.45L571.551 594.21C571.406 594.748 571.387 595.311 571.495 595.857C571.603 596.403 571.836 596.917 572.174 597.359C572.513 597.801 572.948 598.159 573.448 598.406C573.947 598.652 574.496 598.78 575.053 598.78H686.467C687.045 598.78 687.615 598.642 688.128 598.377C688.642 598.112 689.085 597.728 689.421 597.257C689.756 596.786 689.974 596.241 690.056 595.669C690.138 595.097 690.082 594.513 689.893 593.967L682.361 572.207C682.114 571.495 681.651 570.877 681.037 570.44C680.423 570.002 679.688 569.767 678.934 569.767H580.911Z" fill="#79416F"/>
<path d="M878.214 479.706V484.541H379.796L380.171 483.937V479.706H878.214Z" fill="#79416F"/>
<path d="M864.312 280.242C911.047 280.242 948.934 242.356 948.934 195.621C948.934 148.886 911.047 111 864.312 111C817.578 111 779.691 148.886 779.691 195.621C779.691 242.356 817.578 280.242 864.312 280.242Z" fill="#79E5CA"/>
<path d="M899.37 232.492H829.255C827.973 232.491 826.744 231.981 825.837 231.074C824.931 230.168 824.421 228.938 824.419 227.656V185.346C824.421 184.064 824.931 182.835 825.837 181.928C826.744 181.022 827.973 180.512 829.255 180.51H899.37C900.652 180.512 901.881 181.022 902.787 181.928C903.694 182.835 904.204 184.064 904.205 185.346V227.656C904.204 228.938 903.694 230.168 902.787 231.074C901.881 231.981 900.652 232.491 899.37 232.492ZM829.255 185.346V227.656H899.373L899.37 185.346L829.255 185.346Z" fill="white"/>
<path d="M886.072 185.346H842.553V166.004C842.553 151.994 851.704 141.826 864.312 141.826C876.921 141.826 886.072 151.994 886.072 166.004L886.072 185.346ZM847.388 180.51H881.237V166.004C881.237 154.616 874.277 146.662 864.313 146.662C854.348 146.662 847.388 154.616 847.388 166.004L847.388 180.51Z" fill="white"/>
<path d="M864.313 210.128C866.983 210.128 869.148 207.963 869.148 205.293C869.148 202.622 866.983 200.457 864.313 200.457C861.642 200.457 859.477 202.622 859.477 205.293C859.477 207.963 861.642 210.128 864.313 210.128Z" fill="white"/>
<path d="M805.239 381.294H456.76C455.049 381.292 453.409 380.611 452.199 379.401C450.99 378.192 450.309 376.551 450.307 374.84V288.398C450.309 286.687 450.99 285.046 452.199 283.837C453.409 282.627 455.049 281.946 456.76 281.944H805.239C806.95 281.946 808.591 282.627 809.8 283.837C811.01 285.046 811.691 286.687 811.693 288.398V374.84C811.691 376.551 811.01 378.192 809.8 379.401C808.591 380.611 806.95 381.292 805.239 381.294V381.294ZM456.76 284.526C455.734 284.527 454.75 284.935 454.024 285.661C453.298 286.387 452.89 287.371 452.888 288.398V374.84C452.89 375.867 453.298 376.851 454.024 377.577C454.75 378.303 455.734 378.711 456.76 378.712H805.239C806.266 378.711 807.25 378.303 807.976 377.577C808.702 376.851 809.11 375.867 809.111 374.84V288.398C809.11 287.371 808.702 286.387 807.976 285.661C807.25 284.935 806.266 284.527 805.239 284.526L456.76 284.526Z" fill="#562F4F"/>
<path d="M510.907 354.59C525.425 354.59 537.194 342.821 537.194 328.302C537.194 313.784 525.425 302.015 510.907 302.015C496.389 302.015 484.62 313.784 484.62 328.302C484.62 342.821 496.389 354.59 510.907 354.59Z" fill="#562F4F"/>
<path d="M571.618 310.778C571.042 310.777 570.472 310.89 569.939 311.109C569.407 311.329 568.923 311.652 568.516 312.059C568.108 312.466 567.785 312.949 567.564 313.481C567.344 314.013 567.23 314.583 567.23 315.159C567.23 315.735 567.344 316.305 567.564 316.837C567.785 317.369 568.108 317.853 568.516 318.26C568.923 318.666 569.407 318.989 569.939 319.209C570.472 319.429 571.042 319.541 571.618 319.54H778.162C779.323 319.54 780.438 319.079 781.259 318.257C782.081 317.435 782.543 316.321 782.543 315.159C782.543 313.997 782.081 312.883 781.259 312.061C780.438 311.239 779.323 310.778 778.162 310.778H571.618Z" fill="#562F4F"/>
<path d="M571.618 337.065C570.456 337.065 569.342 337.527 568.52 338.348C567.698 339.17 567.237 340.284 567.237 341.446C567.237 342.608 567.698 343.723 568.52 344.544C569.342 345.366 570.456 345.827 571.618 345.827H660.494C661.656 345.827 662.771 345.366 663.592 344.544C664.414 343.723 664.875 342.608 664.875 341.446C664.875 340.284 664.414 339.17 663.592 338.348C662.771 337.527 661.656 337.065 660.494 337.065H571.618Z" fill="#562F4F"/>
</svg>
