<svg width="1348" height="1147" viewBox="0 0 1348 1147" fill="none" xmlns="http://www.w3.org/2000/svg">
<rect y="29" width="1348" height="1083" fill="white"/>
<path d="M150.515 558.017C121.026 607.339 37.8847 546.267 -7.1872e-06 509.566V21.7102L541.213 26.3661C624.149 49.5757 595.916 140.803 574.414 186.644C552.911 232.485 328.675 177.798 356.321 228.715C383.966 279.633 402.397 327.359 356.321 361.015C310.245 394.671 221.165 357.39 187.376 402.651C153.586 447.912 187.376 496.363 150.515 558.017Z" fill="#EB8984"/>
<path d="M224.638 268.159C180.627 190.225 56.5416 286.242 0.000194234 343.992L0.000194234 1113.67L807.739 1108.5C931.519 1072.22 889.382 928.175 857.291 855.767C825.2 783.358 490.535 868.735 531.795 788.515C573.055 708.295 600.562 633.072 531.795 579.79C463.029 526.507 330.08 584.965 279.651 513.423C229.222 441.88 279.651 365.575 224.638 268.159Z" fill="#79E5CA"/>
<path d="M1227.95 760.698L712 907L1182.74 641.756C1161.28 602.439 1134.34 566.372 1102.72 534.638L646 786L1028.36 473.784C973.518 437.506 911.652 413.185 846.789 402.405L635 756L775.271 396.058C773.183 396.031 771.095 396 769 396C508.874 396 298 606.874 298 867C297.864 953.037 321.406 1037.45 366.05 1111H1171.95C1235.41 1005.94 1255.49 880.307 1227.95 760.698Z" fill="#EDAF3E"/>
<path d="M1110 739H428V1111H1110V739Z" fill="#562F4F"/>
<path d="M975 782H548V784H975V782Z" fill="#2F2E41"/>
<path d="M662.784 881.628H507V899.331H662.784V881.628Z" fill="#EB8984"/>
<path d="M769 911.723H507V922.345H769V911.723Z" fill="#F2F2F2"/>
<path d="M754.838 934.736H507V945.358H754.838V934.736Z" fill="#F2F2F2"/>
<path d="M687.568 957.75H507V968.372H687.568V957.75Z" fill="#F2F2F2"/>
<path d="M1142 1076.93C1142 1044.76 1125.68 1018.69 1105.54 1018.69C1092.89 1018.69 1081.74 1028.99 1075.21 1044.63C1073 1043.71 1070.63 1043.24 1068.24 1043.23C1062.14 1043.23 1056.51 1046.36 1051.91 1051.64C1046.02 1032.14 1033.53 1018.69 1019.07 1018.69C1005.54 1018.69 993.749 1030.46 987.456 1047.93C983.959 1044.97 979.553 1043.32 974.978 1043.23C959.526 1043.23 947 1063.25 947 1087.93C946.936 1096.16 948.432 1104.33 951.408 1112H1134.65C1139.26 1102.24 1142 1090.1 1142 1076.93Z" fill="#79E5CA"/>
<path d="M1227 1110H296V1112H1227V1110Z" fill="#562F4F"/>
<path d="M1089 751H1044V768H1089V751Z" fill="#79E5CA"/>
<path d="M996.995 972.371C1028.48 972.371 1054 946.849 1054 915.365C1054 883.882 1028.48 858.36 996.995 858.36C965.512 858.36 939.99 883.882 939.99 915.365C939.99 946.849 965.512 972.371 996.995 972.371Z" fill="#EB8984"/>
<path d="M891.493 982.581C913.578 982.581 931.482 964.677 931.482 942.592C931.482 920.507 913.578 902.604 891.493 902.604C869.408 902.604 851.504 920.507 851.504 942.592C851.504 964.677 869.408 982.581 891.493 982.581Z" fill="#EB8984"/>
</svg>
