<svg width="195" height="195" viewBox="0 0 195 195" fill="none" xmlns="http://www.w3.org/2000/svg">
<circle cx="97.5" cy="97.5" r="97.5" fill="#F2CE17"/>
<path d="M18 77.5362C30.7797 73.8982 30.8685 89.6629 29.3154 98" stroke="#F37CAA" stroke-width="3"/>
<path d="M18 61.8426C38.2346 56.1257 38.3751 80.8988 35.916 94" stroke="#F37CAA" stroke-width="3"/>
<path d="M22.0431 102.524C22.0383 99.9031 22.6485 97.385 24.1173 95.3602C28.1057 89.8622 37.3615 79.9439 52.1773 79.9429C52.8761 79.9428 53.8091 80.1857 55.1631 80.633C55.56 80.7641 55.99 80.9115 56.4511 81.0696C57.4995 81.4291 58.7093 81.844 60.0591 82.2481C63.9927 83.4258 69.2635 84.564 76.3877 84.4092C79.061 84.3512 83.2697 83.4095 87.6482 82.4298C88.0529 82.3393 88.459 82.2484 88.8655 82.1579C93.7634 81.0672 98.7818 80.0075 102.464 79.9391C107.683 79.8423 112.675 81.5006 116.834 83.3169C118.57 84.0754 120.142 84.8522 121.525 85.5358C121.797 85.6702 122.061 85.801 122.319 85.9274C123.829 86.6694 125.189 87.316 126.172 87.5261C128.574 88.0393 131.232 87.8537 133.937 87.386C136.273 86.9819 138.718 86.3523 141.128 85.7318C141.508 85.6338 141.888 85.5361 142.266 85.4396C145.064 84.7248 147.794 84.0697 150.355 83.7874C152.918 83.505 155.229 83.6064 157.211 84.3412C166.634 87.8359 172.661 93.085 175.6 96.1506C176.912 97.5185 177.534 99.4064 177.538 101.415C177.552 109.466 168.531 113.644 162.49 108.384C158.827 105.193 156.11 103.139 152.522 101.953C148.963 100.776 144.633 100.482 137.793 100.577C136.228 100.599 133.719 101.162 130.825 101.933C128.59 102.528 126.043 103.27 123.398 104.041C122.575 104.281 121.743 104.523 120.907 104.765C117.374 105.788 113.774 106.799 110.532 107.551C107.271 108.308 104.451 108.782 102.451 108.767C97.0929 108.727 88.288 106.667 80.4366 104.596C77.9883 103.95 75.6599 103.311 73.5716 102.738C72.322 102.395 71.1583 102.076 70.1063 101.793C68.7102 101.417 67.5108 101.105 66.5891 100.894C66.129 100.788 65.725 100.705 65.3934 100.651C65.1184 100.606 64.8093 100.566 64.5445 100.582C56.0926 100.484 51.9066 102.308 48.7712 105.188C47.51 106.346 46.4287 107.669 45.3347 109.007C45.1143 109.277 44.8933 109.547 44.6703 109.817C43.3235 111.446 41.8451 113.127 39.8062 114.776C35.9787 117.87 31.6411 117.424 28.1548 114.89C24.6283 112.327 22.0525 107.657 22.0431 102.524Z" fill="#F37CAA" stroke="#F37CAA" stroke-width="2"/>
</svg>
