<svg width="1440" height="447" viewBox="0 0 1440 447" fill="none" xmlns="http://www.w3.org/2000/svg">
<rect y="446.259" width="446.259" height="1440" transform="rotate(-90 0 446.259)" fill="#FFE6C0"/>
<ellipse cx="398.276" cy="211.364" rx="143.249" ry="136.121" fill="#F2CE17"/>
<path d="M338.932 44.8888C275.002 48.4801 228.361 138.108 213.032 182.472L250.937 212.039C284.223 165.93 306.602 163.339 313.306 161.408C320.009 159.478 349.473 158.595 372.023 141.818C390.062 128.397 381.914 127.259 375.585 128.368C358.729 136.222 350.905 135.37 349.1 133.962C329.273 116.11 382.604 89.9313 386.183 100.36C389.763 110.789 384.893 111.764 388.858 115.334C392.031 118.19 395.05 115.55 396.163 113.873C418.835 66.6432 376.817 81.2806 352.974 94.503C371.75 73.3507 415.114 68.0364 420.969 65.9214C425.653 64.2294 421.026 61.1925 418.126 59.8856C370.922 50.1764 334.068 77.5285 321.541 92.4182C329.648 69.6263 376.079 56.6809 376.763 55.3056C377.311 54.2054 376.409 52.8016 375.889 52.2372C359.196 38.4524 322.62 63.1895 306.418 77.2812C310.449 69.3514 334.787 56.2932 346.453 50.7553C346.345 47.6162 341.394 45.5364 338.932 44.8888Z" fill="#0F73D1"/>
<path d="M524.249 317.387H240.63C289.58 344.201 261.026 382.37 240.63 398.102H524.249C583.564 375.666 548.964 334.944 524.249 317.387Z" fill="#F37CAA"/>
<line y1="-1.5" x2="240.445" y2="-1.5" transform="matrix(0.999935 0.0113794 -0.0126022 0.999921 265.105 343.38)" stroke="#FFE6C0" stroke-width="3"/>
<line y1="-1.5" x2="240.445" y2="-1.5" transform="matrix(0.999935 0.0113794 -0.0126022 0.999921 262.226 374.845)" stroke="#FFE6C0" stroke-width="3"/>
<line y1="-1.5" x2="240.463" y2="-1.5" transform="matrix(0.999841 -0.0178332 0.0197491 0.999805 266.545 362.562)" stroke="#FFE6C0" stroke-width="3"/>
</svg>
