<svg width="330" height="337" viewBox="0 0 330 337" fill="none" xmlns="http://www.w3.org/2000/svg">
<rect width="330" height="337" fill="#FFE6C0"/>
<line y1="-1.5" x2="167.03" y2="-1.5" transform="matrix(0.999814 0.0193001 -0.00742975 0.999972 74 179.868)" stroke="#FFE6C0" stroke-width="3"/>
<line y1="-1.5" x2="167.03" y2="-1.5" transform="matrix(0.999814 0.0193001 -0.00742975 0.999972 72 216.94)" stroke="#FFE6C0" stroke-width="3"/>
<line y1="-1.5" x2="167.074" y2="-1.5" transform="matrix(0.999543 -0.0302408 0.0116442 0.999932 74 202.469)" stroke="#FFE6C0" stroke-width="3"/>
<path d="M252 219.889H55C89 239.489 69.1667 267.389 55 278.889H252C293.2 262.489 269.167 232.722 252 219.889Z" fill="black"/>
<line x1="71.018" y1="235.389" x2="238.018" y2="237.389" stroke="#FFE6C0" stroke-width="3"/>
<line x1="69.018" y1="258.389" x2="236.018" y2="260.389" stroke="#FFE6C0" stroke-width="3"/>
<line x1="72.9718" y1="249.411" x2="239.97" y2="246.277" stroke="#FFE6C0" stroke-width="3"/>
<path d="M82.8723 179.273L218.609 191.254C194.452 197.459 207.079 210.441 216.411 216.157L80.6742 204.176C52.8976 194.748 70.566 183.646 82.8723 179.273Z" fill="black"/>
<path d="M256.131 162.416L110.05 141C133.916 153.873 117.294 164.78 106 168.625L252.081 190.041C283.758 186.841 267.98 170.291 256.131 162.416Z" fill="black"/>
<line x1="119.419" y1="153.175" x2="245.419" y2="175.175" stroke="#FFE6C0" stroke-width="3"/>
<line y1="-1.5" x2="114.254" y2="-1.5" transform="matrix(0.989525 0.144361 0.144361 -0.989525 117.89 160.334)" stroke="#FFE6C0" stroke-width="3"/>
<path d="M164.515 89.2872C160.974 86.3361 155.99 88.0575 153.941 89.2872V95.9271C153.941 91.2054 166.401 93.9597 172.631 95.9271C171.401 94.9434 168.057 92.2383 164.515 89.2872Z" fill="#0F73D1" stroke="#0F73D1"/>
<path d="M227.742 124.634C232.952 121.501 203.887 91.7918 188.703 77.3291L186.694 79.4583L221.358 118.61C222.422 119.614 224.011 121.597 221.855 121.494C219.698 121.391 218.813 123.722 218.64 124.901C219.503 126.118 222.531 127.768 227.742 124.634Z" fill="#0F73D1" stroke="#0F73D1"/>
<path d="M95.2583 124.634C90.0481 121.501 119.113 91.7918 134.297 77.3291L136.306 79.4583L101.642 118.61C100.578 119.614 98.9893 121.597 101.145 121.494C103.302 121.391 104.187 123.722 104.36 124.901C103.497 126.118 100.469 127.768 95.2583 124.634Z" fill="#0F73D1" stroke="#0F73D1"/>
<circle cx="130.332" cy="91.5926" r="23.0926" fill="#0F73D1" stroke="#0F73D1" stroke-width="3"/>
<circle cx="188.862" cy="91.5926" r="23.0926" fill="#0F73D1" stroke="#0F73D1" stroke-width="3"/>
</svg>
