<svg width="195" height="195" viewBox="0 0 195 195" fill="none" xmlns="http://www.w3.org/2000/svg">
<circle cx="97.5" cy="97.5" r="97.5" fill="#0F73D1"/>
<path d="M100.515 89.2872C96.9741 86.3361 91.9901 88.0575 89.9407 89.2872V95.9271C89.9407 91.2054 102.401 93.9597 108.631 95.9271C107.401 94.9434 104.057 92.2383 100.515 89.2872Z" fill="#F2CE17" stroke="#F2CE17"/>
<path d="M163.742 124.634C168.952 121.5 139.887 91.7915 124.703 77.3289L122.694 79.4581L157.358 118.61C158.422 119.614 160.011 121.596 157.855 121.494C155.698 121.391 154.813 123.722 154.64 124.9C155.503 126.117 158.531 127.768 163.742 124.634Z" fill="#F2CE17" stroke="#F2CE17"/>
<path d="M31.2584 124.634C26.0482 121.5 55.113 91.7915 70.2968 77.3289L72.306 79.4581L37.6424 118.61C36.5784 119.614 34.9895 121.596 37.1456 121.494C39.3017 121.391 40.1872 123.722 40.3604 124.9C39.4974 126.117 36.4687 127.768 31.2584 124.634Z" fill="#F2CE17" stroke="#F2CE17"/>
<circle cx="66.3318" cy="91.5926" r="23.0926" fill="#F2CE17" stroke="#F2CE17" stroke-width="3"/>
<circle cx="124.862" cy="91.5926" r="23.0926" fill="#F2CE17" stroke="#F2CE17" stroke-width="3"/>
</svg>
