<svg width="150" height="74" viewBox="0 0 150 74" fill="none" xmlns="http://www.w3.org/2000/svg">
<path d="M45.1862 58.607C43.9094 57.543 42.1124 58.1637 41.3735 58.607V61.001C41.3735 59.2986 45.866 60.2917 48.1122 61.001C47.6689 60.6464 46.463 59.671 45.1862 58.607Z" fill="black"/>
<path fill-rule="evenodd" clip-rule="evenodd" d="M41.4622 58.6575V60.4727C41.4763 60.4553 41.4911 60.4384 41.5066 60.422C41.6482 60.2724 41.8484 60.1681 42.0854 60.0978C42.5581 59.9578 43.2035 59.9458 43.9084 60.0081C45.1475 60.1176 46.6008 60.46 47.6992 60.7824C47.1216 60.3162 46.1481 59.5238 45.1295 58.6749C44.5152 58.163 43.7736 58.0538 43.088 58.1297C42.4279 58.2027 41.8277 58.4467 41.4622 58.6575ZM41.4622 61.0008C41.4622 60.8096 41.5245 60.6611 41.6354 60.5439C41.7483 60.4247 41.9166 60.3328 42.1358 60.2679C42.5757 60.1375 43.1938 60.1229 43.8928 60.1847C45.2877 60.3081 46.9655 60.7316 48.0856 61.0854L48.1677 60.9316C47.7247 60.5772 46.5193 59.6023 45.243 58.5387C44.5805 57.9866 43.7852 57.8741 43.0685 57.9534C42.3527 58.0326 41.7066 58.3036 41.328 58.5308L41.2849 58.5566V61.0008H41.4622Z" fill="black"/>
<path d="M67.982 71.3511C69.8606 70.2212 59.3814 59.5098 53.907 54.2954L53.1825 55.0631L65.6803 69.179C66.0639 69.541 66.6368 70.2558 65.8595 70.2188C65.0821 70.1819 64.7628 71.0223 64.7004 71.4471C65.0115 71.8859 66.1035 72.481 67.982 71.3511Z" fill="black"/>
<path fill-rule="evenodd" clip-rule="evenodd" d="M53.9036 54.1694L53.9681 54.2309C56.7062 56.839 60.6966 60.8224 63.7682 64.2959C65.3035 66.032 66.612 67.6439 67.4196 68.8943C67.8227 69.5184 68.1052 70.0588 68.2263 70.483C68.2869 70.695 68.3093 70.8853 68.2809 71.0457C68.2519 71.2099 68.1695 71.3415 68.0277 71.4267C66.1228 72.5725 64.9742 71.9862 64.628 71.4981L64.6074 71.4691L64.6126 71.4339C64.6453 71.2114 64.7446 70.8807 64.9396 70.6079C65.1362 70.3328 65.4362 70.1096 65.8636 70.1299C66.0535 70.139 66.1208 70.0986 66.1419 70.07C66.1615 70.0433 66.1684 69.9875 66.1237 69.8831C66.0374 69.6817 65.81 69.423 65.6194 69.2432L65.6165 69.2404L53.0624 55.0608L53.9036 54.1694ZM53.9102 54.4207L53.3026 55.0647L65.744 69.1169C65.9367 69.2992 66.1855 69.5773 66.2867 69.8133C66.336 69.9282 66.3643 70.0668 66.2847 70.1751C66.2065 70.2814 66.054 70.3165 65.8552 70.3071C65.5052 70.2904 65.2568 70.469 65.0839 70.711C64.9193 70.9413 64.8286 71.2228 64.7938 71.4238C65.0988 71.8128 66.1284 72.3621 67.9363 71.2748C68.0293 71.2188 68.0852 71.1343 68.1063 71.0148C68.1281 70.8917 68.1127 70.7309 68.0558 70.5317C67.9421 70.1335 67.6713 69.6109 67.2706 68.9905C66.4706 67.7518 65.1694 66.1481 63.6354 64.4134C60.5924 60.9723 56.6444 57.0279 53.9102 54.4207Z" fill="black"/>
<path d="M20.216 71.3511C18.3374 70.2212 28.8166 59.5098 34.291 54.2954L35.0154 55.0631L22.5177 69.179C22.1341 69.541 21.5612 70.2558 22.3385 70.2188C23.1159 70.1819 23.4352 71.0223 23.4976 71.4471C23.1865 71.8859 22.0945 72.481 20.216 71.3511Z" fill="black"/>
<path fill-rule="evenodd" clip-rule="evenodd" d="M34.2942 54.1694L34.2297 54.2309C31.4915 56.839 27.5011 60.8224 24.4295 64.2959C22.8943 66.032 21.5857 67.6439 20.7782 68.8943C20.3751 69.5184 20.0926 70.0588 19.9714 70.483C19.9109 70.695 19.8884 70.8853 19.9168 71.0457C19.9459 71.2099 20.0283 71.3415 20.1701 71.4267C22.0749 72.5725 23.2236 71.9862 23.5698 71.4981L23.5904 71.4691L23.5852 71.4339C23.5525 71.2114 23.4531 70.8807 23.2581 70.6079C23.0615 70.3328 22.7615 70.1096 22.3342 70.1299C22.1442 70.139 22.0769 70.0986 22.0559 70.07C22.0362 70.0433 22.0293 69.9875 22.0741 69.8831C22.1604 69.6817 22.3878 69.423 22.5783 69.2432L22.5812 69.2404L35.1354 55.0608L34.2942 54.1694ZM34.2875 54.4207L34.8952 55.0647L22.4537 69.1169C22.2611 69.2992 22.0122 69.5773 21.9111 69.8133C21.8618 69.9282 21.8334 70.0668 21.913 70.1751C21.9912 70.2814 22.1438 70.3165 22.3426 70.3071C22.6926 70.2904 22.9409 70.469 23.1139 70.711C23.2784 70.9413 23.3692 71.2228 23.404 71.4238C23.0989 71.8128 22.0693 72.3621 20.2615 71.2748C20.1684 71.2188 20.1126 71.1343 20.0914 71.0148C20.0696 70.8917 20.085 70.7309 20.1419 70.5317C20.2557 70.1335 20.5265 69.6109 20.9271 68.9905C21.7272 67.7518 23.0284 66.1481 24.5624 64.4134C27.6053 60.9723 31.5534 57.0279 34.2875 54.4207Z" fill="black"/>
<path d="M41.7281 59.438C41.7281 64.335 37.7583 68.3047 32.8613 68.3047C27.9644 68.3047 23.9946 64.335 23.9946 59.438C23.9946 54.5411 27.9644 50.5713 32.8613 50.5713C37.7583 50.5713 41.7281 54.5411 41.7281 59.438Z" fill="black"/>
<path fill-rule="evenodd" clip-rule="evenodd" d="M32.8613 67.7727C37.4645 67.7727 41.1961 64.0411 41.1961 59.438C41.1961 54.8349 37.4645 51.1033 32.8613 51.1033C28.2582 51.1033 24.5266 54.8349 24.5266 59.438C24.5266 64.0411 28.2582 67.7727 32.8613 67.7727ZM32.8613 68.3047C37.7583 68.3047 41.7281 64.335 41.7281 59.438C41.7281 54.5411 37.7583 50.5713 32.8613 50.5713C27.9644 50.5713 23.9946 54.5411 23.9946 59.438C23.9946 64.335 27.9644 68.3047 32.8613 68.3047Z" fill="black"/>
<path d="M62.8308 59.438C62.8308 64.335 58.8611 68.3047 53.9641 68.3047C49.0672 68.3047 45.0974 64.335 45.0974 59.438C45.0974 54.5411 49.0672 50.5713 53.9641 50.5713C58.8611 50.5713 62.8308 54.5411 62.8308 59.438Z" fill="black"/>
<path fill-rule="evenodd" clip-rule="evenodd" d="M53.9641 67.7727C58.5673 67.7727 62.2988 64.0411 62.2988 59.438C62.2988 54.8349 58.5673 51.1033 53.9641 51.1033C49.361 51.1033 45.6294 54.8349 45.6294 59.438C45.6294 64.0411 49.361 67.7727 53.9641 67.7727ZM53.9641 68.3047C58.8611 68.3047 62.8308 64.335 62.8308 59.438C62.8308 54.5411 58.8611 50.5713 53.9641 50.5713C49.0672 50.5713 45.0974 54.5411 45.0974 59.438C45.0974 64.335 49.0672 68.3047 53.9641 68.3047Z" fill="black"/>
<path d="M15.1137 61.7466C16.2884 62.002 17.1907 62.5127 17.8206 63.2788C18.4675 64.0278 18.7909 64.9982 18.7909 66.1899C18.7909 67.7221 18.2206 68.9052 17.08 69.7394C15.9564 70.5566 14.2881 70.9651 12.0749 70.9651H3.85229V53.0898H11.5642C13.556 53.0898 15.0967 53.4899 16.1863 54.29C17.2928 55.0902 17.8461 56.2223 17.8461 57.6863C17.8461 58.6737 17.5993 59.5164 17.1056 60.2144C16.6289 60.8954 15.9649 61.4061 15.1137 61.7466ZM5.74197 54.6475V61.1337H11.4365C12.8836 61.1337 13.9987 60.8613 14.7818 60.3166C15.5649 59.7548 15.9564 58.9461 15.9564 57.8906C15.9564 56.8351 15.5649 56.035 14.7818 55.4902C13.9987 54.9284 12.8836 54.6475 11.4365 54.6475H5.74197ZM12.0494 69.4074C13.6497 69.4074 14.8584 69.1351 15.6755 68.5903C16.4927 68.0455 16.9013 67.1943 16.9013 66.0367C16.9013 63.8065 15.284 62.6914 12.0494 62.6914H5.74197V69.4074H12.0494Z" fill="black"/>
<path d="M74.8299 62.5638L71.1782 66.2665V70.9651H69.2886V53.0898H71.1782V63.8916L81.6736 53.0898H83.8442L76.1067 61.1848L84.3804 70.9651H82.1333L74.8299 62.5638Z" fill="black"/>
<path d="M87.116 10.9092C94.2955 8.81519 94.3453 17.8893 93.4728 22.6881" stroke="black" stroke-width="3"/>
<path d="M87.116 2.46782C98.2664 -0.706379 98.3438 13.0485 96.9887 20.3227" stroke="black" stroke-width="3"/>
<path d="M81.5068 39.2192C81.5068 25.1593 95.7163 20.024 102.821 19.2138C106.934 19.2138 106.934 22.7662 106.934 23.888C106.439 30.4514 103.602 37.9804 101.545 42.4638C105.146 36.2206 114.891 24.3936 116.844 22.7662C119.087 20.8965 122.826 21.6444 124.509 23.888C126.192 26.1316 123.387 36.6017 124.509 36.7887C125.407 36.9382 131.988 26.0069 135.166 20.5226C136.475 19.5254 140.177 18.1294 144.515 20.5226C149.937 23.514 134.979 51.559 136.662 53.8026C138.345 56.0462 145.262 51.372 147.506 54.9244C149.75 58.4768 134.044 62.59 129.183 60.9073C124.322 59.2246 131.24 44.2673 130.305 42.9585C129.557 41.9115 128.498 42.5223 128.061 42.9585C122.079 52.3817 118.838 54.1142 117.965 53.8026C112.543 55.4853 115.909 45.2021 115.348 42.9585C114.899 41.1637 113.291 42.2107 112.543 42.9585C101.774 66.4415 92.4755 70.318 89.1725 69.3208C80.9459 69.4704 88.8609 44.8282 93.8466 32.4884C81.3199 45.763 81.5148 38.6448 81.5068 39.2192Z" fill="black" stroke="black" stroke-width="3"/>
<path d="M37.2599 25.4632L28.6681 48.1732H25.7754L18.6083 29.5648L11.4413 48.1732H8.54861L0 25.4632H2.93589L10.0597 44.7624L17.3563 25.4632H19.9899L27.2433 44.7624L34.4535 25.4632H37.2599Z" fill="black"/>
<path d="M50.5257 48.3891C48.3381 48.3891 46.3665 47.8997 44.6107 46.9211C42.8549 45.9137 41.4733 44.5321 40.4659 42.7763C39.4585 41.0206 38.9548 39.0345 38.9548 36.8182C38.9548 34.6019 39.4585 32.6159 40.4659 30.8601C41.4733 29.1043 42.8549 27.7371 44.6107 26.7585C46.3665 25.7798 48.3381 25.2905 50.5257 25.2905C52.7132 25.2905 54.6848 25.7798 56.4406 26.7585C58.1964 27.7371 59.5636 29.1043 60.5422 30.8601C61.5496 32.6159 62.0533 34.6019 62.0533 36.8182C62.0533 39.0345 61.5496 41.0206 60.5422 42.7763C59.5636 44.5321 58.1964 45.9137 56.4406 46.9211C54.6848 47.8997 52.7132 48.3891 50.5257 48.3891ZM50.5257 45.669C52.1375 45.669 53.5767 45.3093 54.8431 44.5897C56.1384 43.8413 57.1458 42.7907 57.8654 41.4379C58.585 40.0851 58.9448 38.5452 58.9448 36.8182C58.9448 35.0912 58.585 33.5513 57.8654 32.1985C57.1458 30.8457 56.1384 29.8095 54.8431 29.0899C53.5767 28.3415 52.1375 27.9674 50.5257 27.9674C48.9138 27.9674 47.4603 28.3415 46.165 29.0899C44.8985 29.8095 43.8911 30.8457 43.1428 32.1985C42.4232 33.5513 42.0634 35.0912 42.0634 36.8182C42.0634 38.5452 42.4232 40.0851 43.1428 41.4379C43.8911 42.7907 44.8985 43.8413 46.165 44.5897C47.4603 45.3093 48.9138 45.669 50.5257 45.669Z" fill="black"/>
<path d="M71.2476 29.9102C71.9671 28.3847 73.0321 27.2334 74.4425 26.4562C75.8816 25.6791 77.6518 25.2905 79.753 25.2905V28.2696L79.019 28.2264C76.63 28.2264 74.7591 28.9604 73.4063 30.4283C72.0535 31.8963 71.3771 33.9543 71.3771 36.6023V48.1732H68.3117V25.4632H71.2476V29.9102Z" fill="black"/>
</svg>
